<?xml version="1.0" encoding="UTF-8"?><svg id="Layer_2" xmlns="http://www.w3.org/2000/svg" viewBox="0 0 510.1 451"><path d="M502.1,451H8c-4.42,0-8-3.58-8-8V37c0-4.42,3.58-8,8-8H502.1c4.42,0,8,3.58,8,8V443c0,4.42-3.58,8-8,8ZM16,435H494.1V45H16V435Z"/><path d="M422,75c-4.42,0-8-3.58-8-8V8c0-4.42,3.58-8,8-8s8,3.58,8,8v59c0,4.42-3.58,8-8,8Z"/><path d="M338.5,75c-4.42,0-8-3.58-8-8V8c0-4.42,3.58-8,8-8s8,3.58,8,8v59c0,4.42-3.58,8-8,8Z"/><path d="M255,75c-4.42,0-8-3.58-8-8V8c0-4.42,3.58-8,8-8s8,3.58,8,8v59c0,4.42-3.58,8-8,8Z"/><path d="M171.5,75c-4.42,0-8-3.58-8-8V8c0-4.42,3.58-8,8-8s8,3.58,8,8v59c0,4.42-3.58,8-8,8Z"/><path d="M88,75c-4.42,0-8-3.58-8-8V8c0-4.42,3.58-8,8-8s8,3.58,8,8v59c0,4.42-3.58,8-8,8Z"/><path d="M502.1,141.55H8c-4.42,0-8-3.58-8-8s3.58-8,8-8H502.1c4.42,0,8,3.58,8,8s-3.58,8-8,8Z"/><path d="M231.8,271.05h-59.5c-4.42,0-8-3.58-8-8v-59.5c0-4.42,3.58-8,8-8h59.5c4.42,0,8,3.58,8,8v59.5c0,4.42-3.58,8-8,8Zm-51.5-16h43.5v-43.5h-43.5v43.5Z"/><path d="M337.8,271.05h-59.5c-4.42,0-8-3.58-8-8v-59.5c0-4.42,3.58-8,8-8h59.5c4.42,0,8,3.58,8,8v59.5c0,4.42-3.58,8-8,8Zm-51.5-16h43.5v-43.5h-43.5v43.5Z"/><path d="M443.8,271.05h-59.5c-4.42,0-8-3.58-8-8v-59.5c0-4.42,3.58-8,8-8h59.5c4.42,0,8,3.58,8,8v59.5c0,4.42-3.58,8-8,8Zm-51.5-16h43.5v-43.5h-43.5v43.5Z"/><path d="M231.8,381.05h-59.5c-4.42,0-8-3.58-8-8v-59.5c0-4.42,3.58-8,8-8h59.5c4.42,0,8,3.58,8,8v59.5c0,4.42-3.58,8-8,8Zm-51.5-16h43.5v-43.5h-43.5v43.5Z"/><path d="M125.8,271.05h-59.5c-4.42,0-8-3.58-8-8v-59.5c0-4.42,3.58-8,8-8h59.5c4.42,0,8,3.58,8,8v59.5c0,4.42-3.58,8-8,8Zm-51.5-16h43.5v-43.5h-43.5v43.5Z"/><path d="M125.8,381.05h-59.5c-4.42,0-8-3.58-8-8v-59.5c0-4.42,3.58-8,8-8h59.5c4.42,0,8,3.58,8,8v59.5c0,4.42-3.58,8-8,8Zm-51.5-16h43.5v-43.5h-43.5v43.5Z"/><path d="M337.8,381.05h-59.5c-4.42,0-8-3.58-8-8v-59.5c0-4.42,3.58-8,8-8h59.5c4.42,0,8,3.58,8,8v59.5c0,4.42-3.58,8-8,8Zm-51.5-16h43.5v-43.5h-43.5v43.5Z"/><path d="M443.8,381.05h-59.5c-4.42,0-8-3.58-8-8v-59.5c0-4.42,3.58-8,8-8h59.5c4.42,0,8,3.58,8,8v59.5c0,4.42-3.58,8-8,8Zm-51.5-16h43.5v-43.5h-43.5v43.5Z"/></svg>